<?xml version="1.0" standalone="no"?>
<!DOCTYPE svg PUBLIC "-//W3C//DTD SVG 1.1//EN" "http://www.w3.org/Graphics/SVG/1.1/DTD/svg11.dtd" >
<svg xmlns="http://www.w3.org/2000/svg">
<metadata>Generated by IcoMoon</metadata>
<defs>
<font id="icomoon" horiz-adv-x="1024">
<font-face units-per-em="1024" ascent="960" descent="-64" />
<missing-glyph horiz-adv-x="1024" />
<glyph unicode="&#x20;" d="" horiz-adv-x="512" />
<glyph unicode="&#x41;" d="M853.333 362.667c23.552 0 42.667 19.115 42.667 42.667v426.667c0 23.552-19.115 42.667-42.667 42.667h-682.667c-23.552 0-42.667-19.115-42.667-42.667v-426.667c0-23.552 19.115-42.667 42.667-42.667h682.667zM213.333 789.333h597.333v-341.333h-597.333v341.333zM897.771 277.333h-768c-23.552 0-42.667-19.115-42.667-42.667v-170.667c0-23.552 19.115-42.667 42.667-42.667h768c23.552 0 42.667 19.115 42.667 42.667v170.667c0 23.552-19.093 42.667-42.667 42.667zM513.771 106.667h-256v85.333h256v-85.333zM640.021 106.667c-23.552 0-42.667 19.115-42.667 42.667s19.115 42.667 42.667 42.667 42.667-19.115 42.667-42.667-19.115-42.667-42.667-42.667zM810.688 106.667c-23.552 0-42.667 19.115-42.667 42.667s19.115 42.667 42.667 42.667 42.667-19.115 42.667-42.667-19.115-42.667-42.667-42.667z" />
<glyph unicode="&#x42;" d="M896 832h-768c-23.552 0-42.667-19.115-42.667-42.667v-512c0-23.552 19.115-42.667 42.667-42.667h341.333v-85.333h-128v-85.333h341.333v85.333h-128v85.333h341.333c23.552 0 42.667 19.115 42.667 42.667v512c0 23.552-19.115 42.667-42.667 42.667zM170.667 746.667h682.667v-426.667h-682.667v426.667z" />
<glyph unicode="&#x43;" d="M810.603 362.667v-127.957h-597.205v426.581h256.64v128.043h-384.704v-682.667h853.333v256zM877.312 677.909v0l-120.683 120.683-60.331-60.352 76.672-76.651h-219.008v-85.333h221.675l-79.339-79.381 60.331-60.331 181.013 181.035z" />
<glyph unicode="&#x44;" d="M810.667 362.667v-128h-597.333v426.667h256.704v128h-384.704v-682.667h853.333v256zM877.312 677.909v0l-99.349 99.349-60.331-60.352 55.339-55.317h-219.008v-85.333h221.675l-58.005-58.048 60.331-60.331 159.68 159.701z" />
<glyph unicode="&#x61;" d="M170.667 789.333h682.667v-128h-682.667v128zM170.667 512h682.667v-128h-682.667v128zM170.667 234.667h682.667v-128h-682.667v128z" />
<glyph unicode="&#x62;" d="M170.667 725.312h682.667v-128h-682.667v128zM170.667 512h682.667v-128h-682.667v128zM170.667 298.667h682.667v-128h-682.667v128z" />
<glyph unicode="&#x63;" d="M170.667 746.645h682.667v-128h-682.667v128zM170.667 512h682.667v-128h-682.667v128zM170.667 277.333h682.667v-128h-682.667v128z" />
<glyph unicode="&#x64;" d="M128 789.333h768v-128h-768v128zM128 512h768v-128h-768v128zM128 234.667h768v-128h-768v128z" />
<glyph unicode="&#x65;" d="M341.333 789.333h554.667v-128h-554.667v128zM256 725.333c0-35.346-28.654-64-64-64s-64 28.654-64 64c0 35.346 28.654 64 64 64s64-28.654 64-64zM341.333 512h554.667v-128h-554.667v128zM256 448c0-35.346-28.654-64-64-64s-64 28.654-64 64c0 35.346 28.654 64 64 64s64-28.654 64-64zM341.333 234.667h554.667v-128h-554.667v128zM256 170.667c0-35.346-28.654-64-64-64s-64 28.654-64 64c0 35.346 28.654 64 64 64s64-28.654 64-64z" />
<glyph unicode="&#x66;" d="M384 810.667h512v-128h-512v128zM296.875 745.771c0-46.633-37.804-84.437-84.437-84.437s-84.437 37.804-84.437 84.437c0 46.633 37.804 84.437 84.437 84.437s84.437-37.804 84.437-84.437zM384 512.875h512v-128h-512v128zM296.875 448c0-46.633-37.804-84.437-84.437-84.437s-84.437 37.804-84.437 84.437c0 46.633 37.804 84.437 84.437 84.437s84.437-37.804 84.437-84.437zM384 213.333h512v-128h-512v128zM296.875 148.459c0-46.633-37.804-84.437-84.437-84.437s-84.437 37.804-84.437 84.437c0 46.633 37.804 84.437 84.437 84.437s84.437-37.804 84.437-84.437z" />
<glyph unicode="&#x67;" d="M128 746.667h128v-128h-128v128zM341.333 746.667h554.667v-128h-554.667v128zM128 512h128v-128h-128v128zM341.333 512h554.667v-128h-554.667v128zM128 277.333h128v-128h-128v128zM341.333 277.333h554.667v-128h-554.667v128z" />
<glyph unicode="&#x68;" d="M128 789.333h128v-128h-128v128zM341.333 789.333h554.667v-128h-554.667v128zM128 512h128v-128h-128v128zM341.333 512h554.667v-128h-554.667v128zM128 234.667h128v-128h-128v128zM341.333 234.667h554.667v-128h-554.667v128z" />
<glyph unicode="&#x69;" d="M170.667 149.333h682.667v-85.333h-682.667v85.333zM896 832h-768c-23.552 0-42.667-19.115-42.667-42.667v-512c0-23.552 19.115-42.667 42.667-42.667h768c23.552 0 42.667 19.115 42.667 42.667v512c0 23.552-19.115 42.667-42.667 42.667zM853.333 320h-682.667v426.667h682.667v-426.667z" />
<glyph unicode="&#x6a;" d="M512 874.667c-235.648 0-426.667-191.019-426.667-426.667s191.019-426.667 426.667-426.667 426.667 191.019 426.667 426.667-191.019 426.667-426.667 426.667zM554.816 191.744h-85.333v84.587h85.333v-84.587zM623.403 441.771c-14.357-10.795-30.144-20.075-43.072-31.573-26.539-22.272-25.557-41.621-25.557-70.357 0-10.069 0-19.712 0-20.096h-85.333c0 98.389 8.256 112.064 33.664 137.067 14.571 14.336 80.085 48.939 80.085 96.981 0 37.291-25.856 63.019-71.083 63.019-45.099 0-75.648-13.952-105.323-61.995l-63.36 62.336c33.664 65.323 109.419 86.997 167.253 86.997 107.669 0 172.075-65.643 172.075-148.224 0.021-63.211-37.099-97.664-59.349-114.155z" />
<glyph unicode="&#x6b;" d="M853.333 675.541c-0.064-0.043-0.085-0.085-0.128-0.128-31.552-31.509-82.432-31.659-113.941-0.171-31.509 31.531-31.36 82.432 0.149 113.941 0.064 0.064 0.085 0.085 0.128 0.149l-85.312 85.333-568.896-568.875 85.205-85.248c31.509 31.381 82.475 31.339 113.92-0.085 31.445-31.467 31.488-82.411 0.085-113.92l85.269-85.205 568.853 568.875-85.333 85.333zM440.896 490.624l-56.896 56.917 28.437 28.459 56.917-56.917-28.459-28.459zM540.459 419.584c-15.723-15.744-41.195-15.744-56.896-0.043s-15.723 41.173 0.021 56.917c15.68 15.701 41.173 15.701 56.875 0s15.701-41.216 0-56.875zM611.563 320l-56.917 56.875 28.459 28.459 56.896-56.917-28.437-28.416z" />
<glyph unicode="&#x6c;" d="M945.003 628.715l-60.331 60.331c0 0-0.128-0.085-0.171-0.149-33.408-33.408-87.125-33.259-120.533 0.149s-33.536 87.125-0.128 120.533c0.043 0.043 0.085 0.085 0.128 0.128l-60.331 60.352c-16.661 16.64-43.669 16.661-60.331-0.021l-543.061-543.083c-16.491-16.619-16.491-43.456 0-60.075v-0.171l60.245-60.203c33.365 33.301 87.424 33.237 120.789-0.128 33.323-33.323 33.408-87.381 0.128-120.789l60.203-60.224-0.043-0.021c15.083-15.083 43.243-16.491 59.925-0.128l0.448 0.171 543.040 542.997c16.683 16.661 16.683 43.691 0.021 60.331zM447.168 492.949l-60.331 60.331 30.165 30.187 60.373-60.352-30.208-30.165zM552.789 417.536c-16.661-16.661-43.712-16.661-60.331 0-16.704 16.661-16.704 43.669 0 60.331 16.619 16.661 43.669 16.661 60.331 0s16.661-43.669 0-60.331zM628.203 311.915l-60.331 60.373 30.165 30.165 60.331-60.331-30.165-30.208z" />
<glyph unicode="&#x6d;" d="M884.715 689.344c-0.064-0.064-0.085-0.085-0.149-0.149-33.429-33.408-87.424-33.557-120.832-0.149s-33.28 87.403 0.149 120.832c0.064 0.064 0.085 0.085 0.149 0.149l-90.496 90.517-603.413-603.371 90.368-90.411c33.408 33.301 87.488 33.259 120.811-0.107 33.344-33.323 33.387-87.403 0.107-120.811l90.432-90.347 603.371 603.328-90.496 90.517zM447.253 493.248l-60.352 60.352 30.165 30.165 60.352-60.352-30.165-30.165zM552.853 417.856c-16.683-16.704-43.691-16.683-60.352-0.021s-16.683 43.669 0.021 60.352c16.64 16.661 43.669 16.661 60.331 0s16.661-43.691 0-60.331zM628.267 312.235l-60.352 60.352 30.165 30.165 60.352-60.352-30.165-30.165z" />
<glyph unicode="&#x6e;" d="M572.289 447.993l-60.316 60.333 60.348 60.331 60.316-60.333-60.348-60.331zM512 874.688c-235.669 0-426.667-191.040-426.688-426.688 0-235.648 191.019-426.667 426.688-426.667 235.648 0 426.667 191.019 426.667 426.667 0 235.669-191.019 426.688-426.667 426.688zM723.157 417.792l-45.227 45.227-60.309-60.309 45.227-45.248-241.301-241.323-60.267 60.181c33.301 33.408 33.259 87.488-0.107 120.811-33.323 33.344-90.581 30.208-120.811 0.107l-60.224 60.224 241.365 241.365 45.227-45.227 60.309 60.309-45.205 45.227 120.704 120.704 60.309-60.331c-0.064-0.064-0.107-0.085-0.149-0.128-33.408-33.429-33.6-87.403-0.171-120.853 33.429-33.408 87.403-33.301 120.853 0.171 0.064 0.064 0.085 0.085 0.128 0.128l60.352-60.331-120.704-120.704z" />
<glyph unicode="&#x6f;" d="M693.035 448l60.309 60.309 60.373-60.309 150.827 150.827-90.496 90.539c-0.043-0.043-0.085-0.085-0.128-0.171-33.451-33.408-87.467-33.536-120.875-0.171-33.387 33.429-33.259 87.424 0.171 120.875 0.043 0.043 0.107 0.064 0.149 0.128l-90.475 90.496-150.891-150.848 60.331-60.331-60.331-60.331-60.331 60.331-392.192-392.149 90.368-90.432c30.251 30.123 87.488 33.28 120.811-0.107 33.344-33.323 33.387-87.381 0.128-120.768l90.432-90.368 392.107 392.171-60.288 60.309zM632.661 508.331l-60.331 60.331 60.331 60.373 60.331-60.373-60.331-60.331z" />
<glyph unicode="&#x70;" d="M512 874.645c-235.627 0-426.645-191.019-426.667-426.645 0-235.627 191.019-426.645 426.688-426.645 235.605 0 426.624 191.019 426.645 426.624 0 235.648-191.040 426.667-426.667 426.667zM703.957 420.544l-54.827 54.827-54.805-54.827 54.805-54.848-219.349-219.392-54.805 54.699c30.251 30.4 30.229 79.552-0.107 109.824-30.272 30.315-82.325 27.477-109.803 0.085l-54.763 54.763 219.435 219.392 54.848-54.827 54.805 54.827-54.805 54.848 109.739 109.717 54.805-54.827c-0.043-0.085-0.085-0.085-0.149-0.128-30.336-30.421-30.485-79.467-0.107-109.845 30.336-30.379 79.403-30.272 109.803 0.149 0.085 0.064 0.085 0.064 0.149 0.107l54.827-54.848-109.696-109.696zM566.826 447.979l-54.833 54.864 54.849 54.818 54.833-54.864-54.849-54.818z" />
<glyph unicode="&#x71;" d="M768 448c0-141.385-114.615-256-256-256s-256 114.615-256 256c0 141.385 114.615 256 256 256s256-114.615 256-256zM512 874.667c-235.627 0-426.667-191.040-426.667-426.667s191.040-426.667 426.667-426.667 426.667 191.040 426.667 426.667-191.040 426.667-426.667 426.667zM512 106.667c-188.501 0-341.333 152.832-341.333 341.333s152.832 341.333 341.333 341.333 341.333-152.832 341.333-341.333-152.832-341.333-341.333-341.333z" />
<glyph unicode="&#x72;" d="M725.333 874.667h-426.667c-23.552 0-42.667-19.115-42.667-42.667v-768c0-23.552 19.115-42.667 42.667-42.667h426.667c23.552 0 42.667 19.115 42.667 42.667v768c0 23.552-19.115 42.667-42.667 42.667zM512 64c-23.552 0-42.667 19.115-42.667 42.667s19.115 42.667 42.667 42.667 42.667-19.115 42.667-42.667-19.115-42.667-42.667-42.667zM682.667 192h-341.333v554.667h341.333v-554.667z" />
<glyph unicode="&#x73;" d="M725.333 874.667h-426.667c-23.552 0-42.667-19.115-42.667-42.667v-768c0-23.552 19.115-42.667 42.667-42.667h426.667c23.552 0 42.667 19.115 42.667 42.667v768c0 23.552-19.115 42.667-42.667 42.667zM512 64c-23.552 0-42.667 19.115-42.667 42.667s19.115 42.667 42.667 42.667 42.667-19.115 42.667-42.667-19.115-42.667-42.667-42.667zM682.667 192h-341.333v597.333h341.333v-597.333z" />
<glyph unicode="&#x74;" d="M810.667 874.667h-597.333c-23.552 0-42.667-19.115-42.667-42.667v-768c0-23.552 19.115-42.667 42.667-42.667h597.333c23.552 0 42.667 19.115 42.667 42.667v768c0 23.552-19.115 42.667-42.667 42.667zM255.979 789.333h512.043v-597.333h-512.043v597.333zM469.333 106.667c0 23.552 19.115 42.667 42.667 42.667s42.667-19.115 42.667-42.667-19.115-42.667-42.667-42.667-42.667 19.115-42.667 42.667z" />
<glyph unicode="&#x75;" d="M896 874.667h-768c-23.552 0-42.667-19.115-42.667-42.667v-597.333c0-23.552 19.115-42.667 42.667-42.667h768c23.552 0 42.667 19.115 42.667 42.667v597.333c0 23.552-19.115 42.667-42.667 42.667zM170.667 362.667v426.667h682.667v-426.667h-682.667zM469.333 277.333c0 23.552 19.115 42.667 42.667 42.667s42.667-19.115 42.667-42.667-19.115-42.667-42.667-42.667-42.667 19.115-42.667 42.667zM597.333 192h-170.667l-97.493-97.835c-16.661-16.661-16.661-43.669 0-60.331 8.32-8.341 19.243-12.501 30.165-12.501l305.323 0.021c0.107 0 0.235-0.021 0.341-0.021 10.923 0 21.824 4.16 30.165 12.501 16.661 16.661 16.661 43.669 0 60.331l-97.835 97.835z" />
<glyph unicode="&#x76;" d="M896 874.667h-768c-23.552 0-42.667-19.115-42.667-42.667v-597.333c0-23.552 19.115-42.667 42.667-42.667h768c23.552 0 42.667 19.115 42.667 42.667v597.333c0 23.552-19.115 42.667-42.667 42.667zM170.667 362.667v426.667h682.667v-426.667h-682.667zM469.333 277.333c0 23.552 19.115 42.667 42.667 42.667s42.667-19.115 42.667-42.667-19.115-42.667-42.667-42.667-42.667 19.115-42.667 42.667zM640 149.333h-256l-54.827-55.168c-16.661-16.661-16.661-43.669 0-60.331 8.32-8.341 19.243-12.501 30.165-12.501l305.323 0.021c0.107 0 0.235-0.021 0.341-0.021 10.923 0 21.824 4.16 30.165 12.501 16.661 16.661 16.661 43.669 0 60.331l-55.168 55.168z" />
<glyph unicode="&#x77;" d="M42.667 192v-85.333h938.667v85.333zM853.333 789.333h-682.667c-23.552 0-42.667-19.115-42.667-42.667v-426.667c0-23.552 19.115-42.667 42.667-42.667h682.667c23.552 0 42.667 19.115 42.667 42.667v426.667c0 23.552-19.115 42.667-42.667 42.667zM808.896 362.667h-597.333v341.333h597.333v-341.333z" />
<glyph unicode="&#x78;" d="M42.667 234.667v-85.333h938.667v85.333zM853.333 746.667h-682.667c-23.552 0-42.667-19.115-42.667-42.667v-384c0-23.552 19.115-42.667 42.667-42.667h682.667c23.552 0 42.667 19.115 42.667 42.667v384c0 23.552-19.115 42.667-42.667 42.667zM808.896 362.667h-597.333v298.667h597.333v-298.667z" />
<glyph unicode="&#x79;" d="M810.667 234.667v384c0 23.552-19.115 42.667-42.667 42.667h-512c-22.251 0-40.32-17.109-42.261-38.848h-0.405v-387.819h597.333zM725.333 320h-426.667v256h426.667v-256zM640 277.333h-554.667v-85.333h853.333v85.333z" />
<glyph unicode="&#x7a;" d="M853.333 277.333v469.333c0 23.552-19.115 42.667-42.667 42.667h-597.333c-22.251 0-40.32-17.109-42.261-38.848h-0.405v-473.152h682.667zM768 362.667h-512v341.333h512v-341.333zM640 234.667c0-23.552-19.115-42.667-42.667-42.667h-170.667c-23.552 0-42.667 19.115-42.667 42.667h-298.667v-42.667c0-23.552 19.115-42.667 42.667-42.667h768c23.552 0 42.667 19.115 42.667 42.667v42.667h-298.667z" />
</font>
</defs>
</svg>
