<?xml version="1.0" encoding="utf-8"?>
<!-- Generator: Adobe Illustrator 16.0.0, SVG Export Plug-In . SVG Version: 6.00 Build 0)  -->
<!DOCTYPE svg PUBLIC "-//W3C//DTD SVG 1.1//EN" "http://www.w3.org/Graphics/SVG/1.1/DTD/svg11.dtd">
<svg version="1.1" id="Layer_1" xmlns="http://www.w3.org/2000/svg" xmlns:xlink="http://www.w3.org/1999/xlink" x="0px" y="0px"
	 width="480px" height="480px" viewBox="0 0 480 480" enable-background="new 0 0 480 480" xml:space="preserve">
<g>
	<path d="M380,200h-40v-60c0-55.141-44.859-100-100-100S140,84.859,140,140v60h-40c-11.047,0-20,8.953-20,20v200
		c0,11.047,8.953,20,20,20h280c11.047,0,20-8.953,20-20V220C400,208.953,391.047,200,380,200z M180,140c0-33.086,26.914-60,60-60
		s60,26.914,60,60v60H180V140z"/>
	<rect fill="none" width="480" height="480"/>
</g>
</svg>
