<?xml version="1.0" encoding="utf-8"?>
<!-- Generator: Adobe Illustrator 16.0.0, SVG Export Plug-In . SVG Version: 6.00 Build 0)  -->
<!DOCTYPE svg PUBLIC "-//W3C//DTD SVG 1.1//EN" "http://www.w3.org/Graphics/SVG/1.1/DTD/svg11.dtd">
<svg version="1.1" id="Layer_1" xmlns="http://www.w3.org/2000/svg" xmlns:xlink="http://www.w3.org/1999/xlink" x="0px" y="0px"
	 width="48px" height="48px" viewBox="0 0 48 48" enable-background="new 0 0 48 48" xml:space="preserve">
<g>
	<path d="M46.59,41.785l-12.83-12.83c1.729-2.556,2.74-5.637,2.74-8.955C36.5,11.164,29.337,4,20.5,4c-8.836,0-16,7.164-16,16.001
		C4.5,28.836,11.664,36,20.5,36c3.35,0,6.457-1.033,9.027-2.793l12.821,12.821L46.59,41.785z M10.469,20.001
		c0-5.532,4.5-10.032,10.031-10.032s10.031,4.5,10.031,10.032c0,5.531-4.5,10.03-10.031,10.03S10.469,25.532,10.469,20.001z"/>
	<rect fill="none" width="48" height="48"/>
</g>
</svg>
