<?xml version="1.0" encoding="utf-8"?>
<!-- Generator: Adobe Illustrator 16.0.0, SVG Export Plug-In . SVG Version: 6.00 Build 0)  -->
<!DOCTYPE svg PUBLIC "-//W3C//DTD SVG 1.1//EN" "http://www.w3.org/Graphics/SVG/1.1/DTD/svg11.dtd">
<svg version="1.1" id="Layer_1" xmlns="http://www.w3.org/2000/svg" xmlns:xlink="http://www.w3.org/1999/xlink" x="0px" y="0px"
	 width="48px" height="48px" viewBox="0 0 48 48" enable-background="new 0 0 48 48" xml:space="preserve">
<g>
	<path d="M43.278,37.121l-9.011-9.011C35.677,25.729,36.5,22.962,36.5,20c0-8.822-7.178-16-16-16s-16,7.178-16,16s7.178,16,16,16
		c2.962,0,5.729-0.823,8.11-2.232l9.011,9.011l1.414,1.414l1.414-1.414l2.829-2.829l1.414-1.414L43.278,37.121z M20.5,28
		c-4.411,0-8-3.589-8-8s3.589-8,8-8s8,3.589,8,8S24.911,28,20.5,28z"/>
	<rect fill="none" width="48" height="48"/>
</g>
</svg>
