<?xml version="1.0" encoding="utf-8"?>
<!-- Generator: Adobe Illustrator 16.0.0, SVG Export Plug-In . SVG Version: 6.00 Build 0)  -->
<!DOCTYPE svg PUBLIC "-//W3C//DTD SVG 1.1//EN" "http://www.w3.org/Graphics/SVG/1.1/DTD/svg11.dtd">
<svg version="1.1" id="Layer_1" xmlns="http://www.w3.org/2000/svg" xmlns:xlink="http://www.w3.org/1999/xlink" x="0px" y="0px"
	 width="48px" height="48px" viewBox="0 0 48 48" enable-background="new 0 0 48 48" xml:space="preserve">
<g>
	<path d="M46,43.17L32.62,29.797c2.108-2.711,3.378-6.104,3.378-9.797c0-8.822-7.177-16-15.999-16S4,11.178,4,20
		s7.177,15.998,15.999,15.998c3.69,0,7.083-1.268,9.793-3.373L43.166,46L46,43.17z M8.267,20c0-6.471,5.264-11.732,11.732-11.732
		c6.471,0,11.732,5.262,11.732,11.732c0,6.469-5.262,11.732-11.732,11.732C13.53,31.732,8.267,26.469,8.267,20z"/>
	<rect fill="none" width="48" height="48"/>
</g>
</svg>
