<?xml version="1.0" encoding="utf-8"?>
<!-- Generator: Adobe Illustrator 16.0.0, SVG Export Plug-In . SVG Version: 6.00 Build 0)  -->
<!DOCTYPE svg PUBLIC "-//W3C//DTD SVG 1.1//EN" "http://www.w3.org/Graphics/SVG/1.1/DTD/svg11.dtd">
<svg version="1.1" id="Layer_1" xmlns="http://www.w3.org/2000/svg" xmlns:xlink="http://www.w3.org/1999/xlink" x="0px" y="0px"
	 width="48px" height="48px" viewBox="0 0 48 48" enable-background="new 0 0 48 48" xml:space="preserve">
<g>
	<path d="M44,8H4c-1.104,0-2,0.896-2,2v26c0,1.104,0.896,2,2,2h16.004l4,4l4-4H44c1.104,0,2-0.896,2-2V10C46,8.896,45.104,8,44,8z
		 M6,22h10v4H6V22z M24,34H6v-4h18V34z M20,26v-4h10v4H20z M42,34H28v-4h14V34z M42,26h-8v-4h8V26z"/>
	<rect fill="none" width="48" height="48"/>
</g>
</svg>
