<?xml version="1.0" encoding="utf-8"?>
<!-- Generator: Adobe Illustrator 16.0.0, SVG Export Plug-In . SVG Version: 6.00 Build 0)  -->
<!DOCTYPE svg PUBLIC "-//W3C//DTD SVG 1.1//EN" "http://www.w3.org/Graphics/SVG/1.1/DTD/svg11.dtd">
<svg version="1.1" id="Layer_1" xmlns="http://www.w3.org/2000/svg" xmlns:xlink="http://www.w3.org/1999/xlink" x="0px" y="0px"
	 width="48px" height="48px" viewBox="0 0 48 48" enable-background="new 0 0 48 48" xml:space="preserve">
<g>
	<g>
		<polygon points="44,40 40,40 40,12 4,12 4,8 44,8 		"/>
		<polygon points="4,16 4,20 32,20 32,40 36,40 36,16 		"/>
		<path d="M28,38c0,1.104-0.896,2-2,2H6c-1.104,0-2-0.896-2-2V26c0-1.104,0.896-2,2-2h20c1.104,0,2,0.896,2,2V38z"/>
	</g>
	<rect fill="none" width="48" height="48"/>
</g>
</svg>
