<?xml version="1.0" encoding="utf-8"?>
<!-- Generator: Adobe Illustrator 16.0.0, SVG Export Plug-In . SVG Version: 6.00 Build 0)  -->
<!DOCTYPE svg PUBLIC "-//W3C//DTD SVG 1.1//EN" "http://www.w3.org/Graphics/SVG/1.1/DTD/svg11.dtd">
<svg version="1.1" id="Layer_1" xmlns="http://www.w3.org/2000/svg" xmlns:xlink="http://www.w3.org/1999/xlink" x="0px" y="0px"
	 width="48px" height="48px" viewBox="0 0 48 48" enable-background="new 0 0 48 48" xml:space="preserve">
<g>
	<path d="M36.58,11.433L21.024,26.989l-9.9-9.9l0,0c-0.78-0.78-2.047-0.78-2.828,0.001l0.013,0.013H8.285l-2.807,2.806v0.021
		l-0.011-0.011c-0.781,0.781-0.781,2.048,0,2.828l0,0L19.61,36.889c0.781,0.781,2.047,0.781,2.828,0l-0.001-0.001l19.799-19.797
		v-0.002l0.001,0.001c0.781-0.782,0.781-2.048,0-2.828l-2.828-2.829C38.627,10.651,37.361,10.651,36.58,11.433z"/>
	<rect fill="none" width="48" height="48"/>
</g>
</svg>
