<?xml version="1.0" encoding="utf-8"?>
<!-- Generator: Adobe Illustrator 16.0.0, SVG Export Plug-In . SVG Version: 6.00 Build 0)  -->
<!DOCTYPE svg PUBLIC "-//W3C//DTD SVG 1.1//EN" "http://www.w3.org/Graphics/SVG/1.1/DTD/svg11.dtd">
<svg version="1.1" id="Layer_1" xmlns="http://www.w3.org/2000/svg" xmlns:xlink="http://www.w3.org/1999/xlink" x="0px" y="0px"
	 width="48px" height="48px" viewBox="0 0 48 48" enable-background="new 0 0 48 48" xml:space="preserve">
<g>
	<path d="M24,10C10,10,2,24,2,24s8,14,22,14s22-14,22-14S38,10,24,10z M6.829,24c0.876-1.168,2.16-2.707,3.812-4.226
		c3.86-3.547,8.002-5.455,12.322-5.721C17.928,14.573,14,18.828,14,24s3.928,9.427,8.963,9.946
		c-4.32-0.266-8.462-2.173-12.322-5.721C8.989,26.707,7.704,25.167,6.829,24z M37.359,28.226c-3.86,3.547-8.002,5.455-12.322,5.721
		C30.072,33.427,34,29.172,34,24s-3.928-9.427-8.963-9.946c4.32,0.266,8.462,2.173,12.322,5.721
		c1.651,1.519,2.937,3.059,3.812,4.226C40.295,25.168,39.011,26.707,37.359,28.226z"/>
	<rect fill="none" width="48" height="48"/>
</g>
</svg>
