<?xml version="1.0" encoding="utf-8"?>
<!-- Generator: Adobe Illustrator 16.0.0, SVG Export Plug-In . SVG Version: 6.00 Build 0)  -->
<!DOCTYPE svg PUBLIC "-//W3C//DTD SVG 1.1//EN" "http://www.w3.org/Graphics/SVG/1.1/DTD/svg11.dtd">
<svg version="1.1" id="Layer_1" xmlns="http://www.w3.org/2000/svg" xmlns:xlink="http://www.w3.org/1999/xlink" x="0px" y="0px"
	 width="48px" height="48px" viewBox="0 0 48 48" enable-background="new 0 0 48 48" xml:space="preserve">
<g>
	<path d="M24,4C12.954,4,4,12.955,4,24c0,11.046,8.954,20,20,20s20-8.954,20-20C44,12.955,35.046,4,24,4z M33.778,25.728
		l0.003,0.005L19,34.269l-0.004-0.007c-0.294,0.17-0.631,0.275-0.996,0.275c-1.104,0-2-0.896-2-2V15.463c0-1.104,0.896-2,2-2
		c0.365,0,0.702,0.105,0.997,0.275L19,13.732l14.782,8.536l-0.003,0.005c0.6,0.345,1.008,0.985,1.008,1.727
		C34.787,24.742,34.378,25.382,33.778,25.728z"/>
	<rect fill="none" width="48" height="48"/>
</g>
</svg>
