<?xml version="1.0" encoding="utf-8"?>
<!-- Generator: Adobe Illustrator 16.0.0, SVG Export Plug-In . SVG Version: 6.00 Build 0)  -->
<!DOCTYPE svg PUBLIC "-//W3C//DTD SVG 1.1//EN" "http://www.w3.org/Graphics/SVG/1.1/DTD/svg11.dtd">
<svg version="1.1" id="Layer_1" xmlns="http://www.w3.org/2000/svg" xmlns:xlink="http://www.w3.org/1999/xlink" x="0px" y="0px"
	 width="48px" height="48px" viewBox="0 0 48 48" enable-background="new 0 0 48 48" xml:space="preserve">
<g>
	<path d="M38.904,22.258l-0.005,0.008l0.003-0.008L12.98,7.676l-0.006,0.006l0.004-0.006C12.689,7.513,12.355,7.419,12,7.419
		c-1.104,0-2,0.896-2,2v29.16c0,1.104,0.896,2,2,2c0.355,0,0.689-0.094,0.979-0.257l-0.002-0.003l0.004,0.004l25.922-14.582
		C39.51,25.399,39.92,24.748,39.92,24C39.92,23.253,39.511,22.602,38.904,22.258z"/>
	<rect y="0" fill="none" width="48" height="48"/>
</g>
</svg>
