<?xml version="1.0" encoding="utf-8"?>
<!-- Generator: Adobe Illustrator 16.0.0, SVG Export Plug-In . SVG Version: 6.00 Build 0)  -->
<!DOCTYPE svg PUBLIC "-//W3C//DTD SVG 1.1//EN" "http://www.w3.org/Graphics/SVG/1.1/DTD/svg11.dtd">
<svg version="1.1" id="Layer_1" xmlns="http://www.w3.org/2000/svg" xmlns:xlink="http://www.w3.org/1999/xlink" x="0px" y="0px"
	 width="48px" height="48px" viewBox="0 0 48 48" enable-background="new 0 0 48 48" xml:space="preserve">
<g>
	<g>
		<path d="M20,40c0,1.104-0.896,2-2,2h-8c-1.104,0-2-0.896-2-2V8c0-1.104,0.896-2,2-2h8c1.104,0,2,0.896,2,2V40z"/>
		<path d="M40,40c0,1.104-0.896,2-2,2h-8c-1.104,0-2-0.896-2-2V8c0-1.104,0.896-2,2-2h8c1.104,0,2,0.896,2,2V40z"/>
	</g>
	<rect fill="none" width="48" height="48"/>
</g>
</svg>
