<?xml version="1.0" encoding="utf-8"?>
<!-- Generator: Adobe Illustrator 16.0.0, SVG Export Plug-In . SVG Version: 6.00 Build 0)  -->
<!DOCTYPE svg PUBLIC "-//W3C//DTD SVG 1.1//EN" "http://www.w3.org/Graphics/SVG/1.1/DTD/svg11.dtd">
<svg version="1.1" id="Layer_1" xmlns="http://www.w3.org/2000/svg" xmlns:xlink="http://www.w3.org/1999/xlink" x="0px" y="0px"
	 width="48px" height="48px" viewBox="0 0 48 48" enable-background="new 0 0 48 48" xml:space="preserve">
<g>
	<rect fill="none" width="48" height="48"/>
	<g>
		<path d="M24,4C12.955,4,4,12.955,4,24c0,11.045,8.955,20,20,20s20-8.955,20-20C44,12.955,35.045,4,24,4z M35.307,32.47
			l-2.828,2.829c-0.781,0.78-2.047,0.78-2.828,0l-5.672-5.672l-5.656,5.657l0.015,0.015c-0.776,0.775-2.027,0.778-2.811,0.015
			h-0.062l-2.829-2.829v-0.07c-0.713-0.766-0.713-1.951,0-2.718v-0.041l5.687-5.687l-5.642-5.642c-0.78-0.781-0.78-2.047,0-2.828
			l2.829-2.828c0.78-0.781,2.047-0.782,2.828-0.001l5.642,5.642l5.627-5.627h0.06l-0.015-0.015c0.781-0.781,2.047-0.78,2.828,0.001
			l-0.029,0.03l2.812,2.813v0.03l0.045-0.045c0.781,0.781,0.781,2.048,0,2.827l-0.045-0.045v0.06l-5.627,5.627l5.673,5.672
			C36.088,30.423,36.088,31.689,35.307,32.47z"/>
	</g>
</g>
</svg>
