<?xml version="1.0" encoding="utf-8"?>
<!-- Generator: Adobe Illustrator 16.0.0, SVG Export Plug-In . SVG Version: 6.00 Build 0)  -->
<!DOCTYPE svg PUBLIC "-//W3C//DTD SVG 1.1//EN" "http://www.w3.org/Graphics/SVG/1.1/DTD/svg11.dtd">
<svg version="1.1" id="Layer_1" xmlns="http://www.w3.org/2000/svg" xmlns:xlink="http://www.w3.org/1999/xlink" x="0px" y="0px"
	 width="48px" height="48px" viewBox="0 0 48 48" enable-background="new 0 0 48 48" xml:space="preserve">
<g>
	<path d="M24,4C12.972,4,4,12.972,4,24c0,11.028,8.972,20,20,20s20-8.972,20-20C44,12.972,35.028,4,24,4z M39.861,22h-7.898
		C31.791,17.213,31,12.435,29.528,9.005C35.028,11.04,39.108,16.002,39.861,22z M24,40c-0.961,0-3.617-4.806-3.962-14h7.924
		C27.617,35.194,24.961,40,24,40z M20.038,22C20.383,12.805,23.039,8,24,8s3.617,4.805,3.962,14H20.038z M18.472,9.005
		C17,12.435,16.209,17.213,16.037,22H8.139C8.892,16.002,12.972,11.04,18.472,9.005z M8.139,26h7.898
		c0.172,4.787,0.963,9.565,2.435,12.995C12.972,36.96,8.892,31.998,8.139,26z M29.528,38.995C31,35.565,31.791,30.787,31.963,26
		h7.898C39.108,31.998,35.028,36.96,29.528,38.995z"/>
	<rect fill="none" width="48" height="48"/>
</g>
</svg>
