<?xml version="1.0" encoding="utf-8"?>
<!-- Generator: Adobe Illustrator 16.0.0, SVG Export Plug-In . SVG Version: 6.00 Build 0)  -->
<!DOCTYPE svg PUBLIC "-//W3C//DTD SVG 1.1//EN" "http://www.w3.org/Graphics/SVG/1.1/DTD/svg11.dtd">
<svg version="1.1" id="Layer_1" xmlns="http://www.w3.org/2000/svg" xmlns:xlink="http://www.w3.org/1999/xlink" x="0px" y="0px"
	 width="48px" height="48px" viewBox="0 0 48 48" enable-background="new 0 0 48 48" xml:space="preserve">
<g>
	<path d="M24,4C12.954,4,4,12.954,4,24s8.954,20,20,20s20-8.954,20-20S35.046,4,24,4z M28,36L28,36c0,1.105-0.896,2.001-2,2.001V38
		h-4c-1.104,0-2-0.896-2-2V24c0-1.104,0.896-2,2-2h4v0.001c1.104,0,1.999,0.895,2,1.999V36z M24,18c-2.208,0-4-1.791-4-4
		s1.792-4,4-4s4,1.791,4,4S26.208,18,24,18z"/>
	<rect fill-rule="evenodd" clip-rule="evenodd" fill="none" width="48" height="48"/>
</g>
</svg>
