<?xml version="1.0" encoding="utf-8"?>
<!-- Generator: Adobe Illustrator 16.0.0, SVG Export Plug-In . SVG Version: 6.00 Build 0)  -->
<!DOCTYPE svg PUBLIC "-//W3C//DTD SVG 1.1//EN" "http://www.w3.org/Graphics/SVG/1.1/DTD/svg11.dtd">
<svg version="1.1" id="Layer_1" xmlns="http://www.w3.org/2000/svg" xmlns:xlink="http://www.w3.org/1999/xlink" x="0px" y="0px"
	 width="48px" height="48px" viewBox="0 0 48 48" enable-background="new 0 0 48 48" xml:space="preserve">
<g>
	<rect fill="none" width="48" height="48"/>
	<path d="M38.143,32.485L29.656,24l8.485-8.485c0.781-0.781,0.781-2.048,0-2.828l-2.828-2.829c-0.781-0.781-2.048-0.781-2.828,0
		L24,18.343l-8.485-8.485c-0.781-0.781-2.048-0.781-2.828,0l-2.829,2.829c-0.78,0.781-0.78,2.046,0,2.828L18.343,24l-8.485,8.485
		c-0.78,0.781-0.78,2.047,0,2.828l2.829,2.828c0.78,0.781,2.047,0.781,2.828,0L24,29.656l8.485,8.485
		c0.78,0.781,2.047,0.781,2.828,0l2.828-2.828C38.923,34.533,38.923,33.268,38.143,32.485L38.143,32.485z"/>
</g>
</svg>
