<?xml version="1.0" encoding="utf-8"?>
<!-- Generator: Adobe Illustrator 16.0.0, SVG Export Plug-In . SVG Version: 6.00 Build 0)  -->
<!DOCTYPE svg PUBLIC "-//W3C//DTD SVG 1.1//EN" "http://www.w3.org/Graphics/SVG/1.1/DTD/svg11.dtd">
<svg version="1.1" id="Layer_1" xmlns="http://www.w3.org/2000/svg" xmlns:xlink="http://www.w3.org/1999/xlink" x="0px" y="0px"
	 width="48px" height="48px" viewBox="0 0 48 48" enable-background="new 0 0 48 48" xml:space="preserve">
<g>
	<rect fill="none" width="48" height="48"/>
	<path d="M40,20H28V8c0-1.104-0.896-2-2-2h-4c-1.104,0-2,0.896-2,2v12H8c-1.104,0-2,0.896-2,2v4c0,1.104,0.896,2,2,2h12v12
		c0,1.104,0.896,2,2,2h4c1.104,0,1.999-0.895,2-1.999l0,0V28h12c1.104,0,2-0.896,2-2v-4C42,20.896,41.104,20,40,20z"/>
</g>
</svg>
