<?xml version="1.0" encoding="utf-8"?>
<!-- Generator: Adobe Illustrator 16.0.0, SVG Export Plug-In . SVG Version: 6.00 Build 0)  -->
<!DOCTYPE svg PUBLIC "-//W3C//DTD SVG 1.1//EN" "http://www.w3.org/Graphics/SVG/1.1/DTD/svg11.dtd">
<svg version="1.1" id="Layer_1" xmlns="http://www.w3.org/2000/svg" xmlns:xlink="http://www.w3.org/1999/xlink" x="0px" y="0px"
	 width="48px" height="48px" viewBox="0 0 48 48" enable-background="new 0 0 48 48" xml:space="preserve">
<g>
	<rect fill="none" width="48" height="48"/>
	<g>
		<circle cx="24" cy="18" r="6"/>
		<path d="M24,3.999c-11.046,0-20,8.954-20,20s8.954,20,20,20s20-8.954,20-20S35.046,3.999,24,3.999z M34,36.923V30l0,0
			c-0.001-2.209-1.79-3.999-4-4h-2l-4,4l-4-4h-2c-2.209,0-4,1.789-4,4v6.923c-3.863-2.996-6.363-7.668-6.363-12.924
			c0-9.023,7.34-16.364,16.363-16.364s16.363,7.341,16.363,16.364C40.363,29.255,37.863,33.927,34,36.923z"/>
	</g>
</g>
</svg>
