<?xml version="1.0" encoding="utf-8"?>
<!-- Generator: Adobe Illustrator 16.0.0, SVG Export Plug-In . SVG Version: 6.00 Build 0)  -->
<!DOCTYPE svg PUBLIC "-//W3C//DTD SVG 1.1//EN" "http://www.w3.org/Graphics/SVG/1.1/DTD/svg11.dtd">
<svg version="1.1" id="Layer_1" xmlns="http://www.w3.org/2000/svg" xmlns:xlink="http://www.w3.org/1999/xlink" x="0px" y="0px"
	 width="48px" height="48px" viewBox="0 0 48 48" enable-background="new 0 0 48 48" xml:space="preserve">
<g>
	<rect fill="none" width="48" height="48"/>
	<g>
		<polygon points="24.242,12.938 20,17.18 15.758,12.938 12.929,15.767 17.171,20.009 12.929,24.251 15.758,27.08 20,22.838 
			24.242,27.08 27.071,24.251 22.829,20.009 27.071,15.767 		"/>
		<path d="M44.143,41.323L32.629,29.809C34.734,27.1,36,23.706,36,20.009c0-8.836-7.163-16-16-16s-16,7.164-16,16
			c0,8.837,7.163,16,16,16c3.697,0,7.092-1.266,9.801-3.372l11.514,11.514L44.143,41.323z M20,32.009c-6.617,0-12-5.383-12-12
			s5.383-12,12-12s12,5.383,12,12S26.617,32.009,20,32.009z"/>
	</g>
</g>
</svg>
