<?xml version="1.0" encoding="utf-8"?>
<!-- Generator: Adobe Illustrator 16.0.0, SVG Export Plug-In . SVG Version: 6.00 Build 0)  -->
<!DOCTYPE svg PUBLIC "-//W3C//DTD SVG 1.1//EN" "http://www.w3.org/Graphics/SVG/1.1/DTD/svg11.dtd">
<svg version="1.1" id="Layer_1" xmlns="http://www.w3.org/2000/svg" xmlns:xlink="http://www.w3.org/1999/xlink" x="0px" y="0px"
	 width="48px" height="48px" viewBox="0 0 48 48" enable-background="new 0 0 48 48" xml:space="preserve">
<path d="M32.486,24l2.827-2.827L38.143,24l7.07-7.07l-4.242-4.244c-0.002,0.002-0.004,0.004-0.006,0.008
	c-1.568,1.566-4.1,1.572-5.666,0.008c-1.565-1.567-1.559-4.098,0.008-5.666c0.002-0.002,0.005-0.003,0.007-0.006l-4.241-4.242
	L24,9.859l2.828,2.828L24,15.515l-2.828-2.828L2.788,31.069l4.236,4.239c1.418-1.412,4.101-1.56,5.663,0.005
	c1.563,1.562,1.565,4.096,0.006,5.661l4.239,4.236l18.38-18.383L32.486,24z M29.656,21.172l-2.828-2.828l2.828-2.83l2.828,2.83
	L29.656,21.172z"/>
<rect fill="none" width="48" height="48"/>
</svg>
