<?xml version="1.0" encoding="utf-8"?>
<!-- Generator: Adobe Illustrator 16.0.0, SVG Export Plug-In . SVG Version: 6.00 Build 0)  -->
<!DOCTYPE svg PUBLIC "-//W3C//DTD SVG 1.1//EN" "http://www.w3.org/Graphics/SVG/1.1/DTD/svg11.dtd">
<svg version="1.1" id="Layer_1" xmlns="http://www.w3.org/2000/svg" xmlns:xlink="http://www.w3.org/1999/xlink" x="0px" y="0px"
	 width="48px" height="48px" viewBox="0 0 48 48" enable-background="new 0 0 48 48" xml:space="preserve">
<path d="M41.471,12.687c-0.003,0.003-0.004,0.004-0.007,0.007c-1.567,1.566-4.098,1.573-5.664,0.007s-1.56-4.097,0.007-5.664
	c0.003-0.003,0.004-0.004,0.007-0.007l-4.242-4.243L3.287,31.07l4.236,4.238c1.566-1.561,4.101-1.559,5.663,0.005
	c1.563,1.562,1.565,4.097,0.005,5.663l4.239,4.235L45.713,16.93L41.471,12.687z M20.965,21.879l-2.829-2.829l1.414-1.414
	l2.829,2.829L20.965,21.879z M25.915,25.413c-0.782,0.783-2.048,0.782-2.829,0.001s-0.782-2.047,0.001-2.829
	c0.78-0.781,2.047-0.781,2.828,0S26.696,24.633,25.915,25.413z M29.45,30.364l-2.829-2.829l1.414-1.414l2.829,2.829L29.45,30.364z"
	/>
<rect fill="none" width="48" height="48"/>
</svg>
