<?xml version="1.0" encoding="utf-8"?>
<!-- Generator: Adobe Illustrator 16.0.0, SVG Export Plug-In . SVG Version: 6.00 Build 0)  -->
<!DOCTYPE svg PUBLIC "-//W3C//DTD SVG 1.1//EN" "http://www.w3.org/Graphics/SVG/1.1/DTD/svg11.dtd">
<svg version="1.1" id="Layer_1" xmlns="http://www.w3.org/2000/svg" xmlns:xlink="http://www.w3.org/1999/xlink" x="0px" y="0px"
	 width="48px" height="48px" viewBox="0 0 48 48" enable-background="new 0 0 48 48" xml:space="preserve">
<g>
	<path d="M44.297,15.529l-2.828-2.828c0,0-0.006,0.004-0.008,0.007c-1.566,1.566-4.084,1.559-5.65-0.007
		c-1.566-1.566-1.572-4.084-0.006-5.65c0.002-0.002,0.004-0.004,0.006-0.006l-2.828-2.829c-0.781-0.78-2.047-0.781-2.828,0.001
		L4.699,29.67v0.004c-0.773,0.779-0.773,2.037,0,2.816v0.008l2.824,2.822c1.564-1.561,4.098-1.558,5.662,0.006
		c1.562,1.562,1.566,4.096,0.006,5.662l2.822,2.823l-0.002,0.001c0.707,0.707,2.027,0.773,2.809,0.006l0.021-0.008l25.455-25.453
		C45.078,17.576,45.078,16.309,44.297,15.529z M20.961,21.893l-2.828-2.828l1.414-1.415l2.83,2.829L20.961,21.893z M25.912,25.428
		c-0.781,0.781-2.049,0.781-2.828,0c-0.783-0.781-0.783-2.047,0-2.828c0.779-0.781,2.047-0.781,2.828,0S26.693,24.647,25.912,25.428
		z M29.447,30.379l-2.828-2.83l1.414-1.414l2.828,2.828L29.447,30.379z"/>
	<rect fill="none" width="48" height="48"/>
</g>
</svg>
