<?xml version="1.0" encoding="utf-8"?>
<!-- Generated by IcoMoon.io -->
<!DOCTYPE svg PUBLIC "-//W3C//DTD SVG 1.1//EN" "http://www.w3.org/Graphics/SVG/1.1/DTD/svg11.dtd">
<svg version="1.1" xmlns="http://www.w3.org/2000/svg" xmlns:xlink="http://www.w3.org/1999/xlink" width="403" height="512" viewBox="0 0 403 512">
<path d="M140.857 138q4.571 0 7.857-3.286t3.286-7.857-3.286-7.857-7.857-3.285-7.714 3.285-3.143 7.857 3.143 7.857 7.714 3.286zM261.428 138q4.572 0 7.714-3.286t3.143-7.857-3.143-7.857-7.714-3.285-7.857 3.285-3.286 7.857 3.286 7.857 7.857 3.286zM29.428 190.571q12 0 20.572 8.571t8.572 20.572v122.857q0 12.286-8.428 20.857t-20.715 8.572-20.857-8.572-8.572-20.857v-122.857q0-12 8.572-20.571t20.857-8.572zM332.286 196v190.286q0 13.143-9.143 22.286t-22 9.143h-21.428v64.857q0 12.286-8.572 20.857t-20.857 8.572-20.857-8.572-8.572-20.857v-64.857h-39.428v64.857q0 12.286-8.572 20.857t-20.857 8.572q-12 0-20.571-8.572t-8.572-20.857l-0.285-64.857h-21.143q-13.143 0-22.285-9.143t-9.143-22.286v-190.286h262.286zM266 80.285q30.572 15.715 48.857 43.857t18.286 61.572h-264.286q0-33.428 18.285-61.572t49.143-43.857l-20.285-37.428q-2-3.715 1.428-5.715 3.715-1.715 5.715 1.715l20.572 37.715q27.143-12 57.429-12t57.428 12l20.572-37.715q2-3.428 5.714-1.715 3.428 2 1.428 5.715zM402.286 219.714v122.857q0 12.286-8.572 20.857t-20.857 8.572q-12 0-20.572-8.572t-8.572-20.857v-122.857q0-12.286 8.572-20.715t20.572-8.428q12.286 0 20.857 8.428t8.572 20.714z" fill="#444444"></path>
</svg>
