<?xml version="1.0" encoding="utf-8"?>
<!-- Generator: Adobe Illustrator 16.0.0, SVG Export Plug-In . SVG Version: 6.00 Build 0)  -->
<!DOCTYPE svg PUBLIC "-//W3C//DTD SVG 1.1//EN" "http://www.w3.org/Graphics/SVG/1.1/DTD/svg11.dtd">
<svg version="1.1" id="Layer_1" xmlns="http://www.w3.org/2000/svg" xmlns:xlink="http://www.w3.org/1999/xlink" x="0px" y="0px"
	 width="465.897px" height="465.896px" viewBox="0 0 465.897 465.896" enable-background="new 0 0 465.897 465.896"
	 xml:space="preserve">
<g>
	<path d="M232.949,38.825c-107.213,0-194.123,86.91-194.123,194.123s86.91,194.123,194.123,194.123s194.123-86.91,194.123-194.123
		S340.162,38.825,232.949,38.825z M271.773,349.422v0.01c0,10.721-8.691,19.412-19.412,19.412v-0.009h-38.824
		c-10.721,0-19.413-8.692-19.413-19.413V232.948c0-10.721,8.692-19.412,19.413-19.412h38.824v0.01
		c10.721,0,19.403,8.687,19.412,19.402V349.422z M232.949,174.711c-21.432,0-38.825-17.384-38.825-38.824
		s17.394-38.825,38.825-38.825s38.824,17.385,38.824,38.825S254.381,174.711,232.949,174.711z"/>
	<rect fill-rule="evenodd" clip-rule="evenodd" fill="none" width="465.897" height="465.896"/>
</g>
</svg>
