<?xml version="1.0" encoding="utf-8"?>
<!-- Generator: Adobe Illustrator 16.0.0, SVG Export Plug-In . SVG Version: 6.00 Build 0)  -->
<!DOCTYPE svg PUBLIC "-//W3C//DTD SVG 1.1//EN" "http://www.w3.org/Graphics/SVG/1.1/DTD/svg11.dtd">
<svg version="1.1" id="Layer_1" xmlns="http://www.w3.org/2000/svg" xmlns:xlink="http://www.w3.org/1999/xlink" x="0px" y="0px"
	 width="465.896px" height="465.896px" viewBox="0 0 465.896 465.896" enable-background="new 0 0 465.896 465.896"
	 xml:space="preserve">
<g>
	<g>
		<path d="M194.123,388.246c0,10.721-8.691,19.412-19.412,19.412H97.062c-10.721,0-19.413-8.691-19.413-19.412V77.648
			c0-10.72,8.692-19.412,19.413-19.412h77.648c10.721,0,19.412,8.692,19.412,19.412V388.246z"/>
		<path d="M388.246,388.246c0,10.721-8.691,19.412-19.412,19.412h-77.648c-10.721,0-19.412-8.691-19.412-19.412V77.648
			c0-10.72,8.691-19.412,19.412-19.412h77.648c10.721,0,19.412,8.692,19.412,19.412V388.246z"/>
	</g>
	<rect fill="none" width="465.896" height="465.896"/>
</g>
</svg>
