<?xml version="1.0" encoding="utf-8"?>
<!-- Generator: Adobe Illustrator 16.0.0, SVG Export Plug-In . SVG Version: 6.00 Build 0)  -->
<!DOCTYPE svg PUBLIC "-//W3C//DTD SVG 1.1//EN" "http://www.w3.org/Graphics/SVG/1.1/DTD/svg11.dtd">
<svg version="1.1" id="Layer_1" xmlns="http://www.w3.org/2000/svg" xmlns:xlink="http://www.w3.org/1999/xlink" x="0px" y="0px"
	 width="465.896px" height="465.892px" viewBox="0 0 465.896 465.892" enable-background="new 0 0 465.896 465.892"
	 xml:space="preserve">
<g>
	<path d="M232.948,38.82c-107.213,0-194.123,86.91-194.123,194.123s86.91,194.123,194.123,194.123
		c107.214,0,194.123-86.91,194.123-194.123S340.162,38.82,232.948,38.82z M252.427,349.541h-38.824v-38.484h38.824V349.541z
		 M283.631,235.787c-6.531,4.91-13.716,9.138-19.593,14.369c-12.075,10.133-11.63,18.938-11.63,32.01c0,4.578,0,8.967,0,9.147
		h-38.824c0-44.769,3.753-50.986,15.316-62.36c6.626-6.521,36.437-22.266,36.437-44.123c0-16.967-11.763-28.674-32.341-28.674
		c-20.521,0-34.418,6.352-47.915,28.209l-28.825-28.36c15.318-29.725,49.782-39.583,76.096-39.583
		c48.985,0,78.293,29.867,78.293,67.441C310.645,212.603,293.754,228.28,283.631,235.787z"/>
	<rect fill="none" width="465.896" height="465.892"/>
</g>
</svg>
