<?xml version="1.0" encoding="utf-8"?>
<!-- Generator: Adobe Illustrator 16.0.0, SVG Export Plug-In . SVG Version: 6.00 Build 0)  -->
<!DOCTYPE svg PUBLIC "-//W3C//DTD SVG 1.1//EN" "http://www.w3.org/Graphics/SVG/1.1/DTD/svg11.dtd">
<svg version="1.1" id="Layer_1" xmlns="http://www.w3.org/2000/svg" xmlns:xlink="http://www.w3.org/1999/xlink" x="0px" y="0px"
	 width="465.895px" height="465.896px" viewBox="0 0 465.895 465.896" enable-background="new 0 0 465.895 465.896"
	 xml:space="preserve">
<g>
	<rect fill="none" width="465.895" height="465.896"/>
	<g>
		<polygon points="252.359,407.659 213.535,407.659 194.123,388.247 194.123,77.649 213.535,58.237 252.359,58.237 271.773,77.649 
			271.773,388.257 		"/>
		<polygon points="407.66,213.536 407.66,252.36 388.246,271.772 77.648,271.772 58.238,252.36 58.238,213.536 77.648,194.123 
			388.246,194.123 		"/>
		<path d="M213.535,58.237c-10.719,0-19.412,8.692-19.412,19.412h19.412V58.237z"/>
		<path d="M271.773,77.649c0-10.72-8.691-19.412-19.414-19.412v19.412H271.773z"/>
		<path d="M252.359,407.659c10.723,0,19.414-8.691,19.414-19.412h-19.414V407.659z"/>
		<path d="M194.123,388.247c0,10.721,8.693,19.412,19.412,19.412v-19.412H194.123z"/>
		<path d="M407.66,213.536c0-10.721-8.693-19.413-19.414-19.413v19.413H407.66z"/>
		<path d="M388.246,271.772c10.721,0,19.414-8.691,19.414-19.412h-19.414V271.772z"/>
		<path d="M58.238,252.36c0,10.721,8.691,19.412,19.41,19.412V252.36H58.238z"/>
		<path d="M77.648,194.123c-10.719,0-19.41,8.692-19.41,19.413h19.41V194.123z"/>
	</g>
</g>
</svg>
