<?xml version="1.0" encoding="utf-8"?>
<!-- Generator: Adobe Illustrator 16.0.0, SVG Export Plug-In . SVG Version: 6.00 Build 0)  -->
<!DOCTYPE svg PUBLIC "-//W3C//DTD SVG 1.1//EN" "http://www.w3.org/Graphics/SVG/1.1/DTD/svg11.dtd">
<svg version="1.1" id="Layer_1" xmlns="http://www.w3.org/2000/svg" xmlns:xlink="http://www.w3.org/1999/xlink" x="0px" y="0px"
	 width="465.895px" height="465.896px" viewBox="0 0 465.895 465.896" enable-background="new 0 0 465.895 465.896"
	 xml:space="preserve">
<g>
	<rect fill="none" width="465.895" height="465.896"/>
	<g>
		
			<rect x="116.475" y="174.793" transform="matrix(0.7071 0.7071 -0.7071 0.7071 194.1838 -80.3832)" width="155.296" height="38.833"/>
		
			<rect x="116.476" y="174.792" transform="matrix(-0.7071 0.7071 -0.7071 -0.7071 468.7149 194.2702)" width="155.295" height="38.833"/>
		<g>
			<path d="M194.123,77.735c31.111,0,60.361,12.115,82.36,34.114s34.114,51.248,34.114,82.359c0,31.112-12.115,60.362-34.114,82.36
				c-21.998,21.999-51.247,34.113-82.36,34.113s-60.362-12.114-82.36-34.113c-21.999-21.998-34.114-51.248-34.114-82.36
				c0-31.111,12.115-60.36,34.114-82.359S163.012,77.735,194.123,77.735 M194.123,38.91c-85.771,0-155.299,69.531-155.299,155.299
				c0,85.772,69.527,155.299,155.299,155.299s155.299-69.526,155.299-155.299C349.422,108.441,279.895,38.91,194.123,38.91
				L194.123,38.91z"/>
		</g>
		
			<line fill="none" stroke="#000000" stroke-width="38.8246" stroke-miterlimit="10" x1="291.184" y1="291.271" x2="414.73" y2="414.815"/>
	</g>
</g>
</svg>
