<?xml version="1.0" encoding="utf-8"?>
<!-- Generator: Adobe Illustrator 16.0.0, SVG Export Plug-In . SVG Version: 6.00 Build 0)  -->
<!DOCTYPE svg PUBLIC "-//W3C//DTD SVG 1.1//EN" "http://www.w3.org/Graphics/SVG/1.1/DTD/svg11.dtd">
<svg version="1.1" id="Layer_1" xmlns="http://www.w3.org/2000/svg" xmlns:xlink="http://www.w3.org/1999/xlink" x="0px" y="0px"
	 width="466px" height="466px" viewBox="0 0 466 466" enable-background="new 0 0 466 466" xml:space="preserve">
<g>
	<path d="M368.834,194.047h-38.825V135.81c0-53.517-43.545-97.062-97.062-97.062s-97.062,43.545-97.062,97.062v58.237H97.062
		c-10.72,0-19.412,8.691-19.412,19.412v194.123c0,10.721,8.692,19.412,19.412,19.412h271.772c10.721,0,19.413-8.691,19.413-19.412
		V213.459C388.247,202.738,379.555,194.047,368.834,194.047z M174.711,194.047V135.81c0-32.114,26.123-58.237,58.237-58.237
		s58.237,26.123,58.237,58.237v58.237H174.711z"/>
	<rect fill="none" width="466" height="466"/>
</g>
</svg>
