<?xml version="1.0" encoding="utf-8"?>
<!-- Generator: Adobe Illustrator 16.0.0, SVG Export Plug-In . SVG Version: 6.00 Build 0)  -->
<!DOCTYPE svg PUBLIC "-//W3C//DTD SVG 1.1//EN" "http://www.w3.org/Graphics/SVG/1.1/DTD/svg11.dtd">
<svg version="1.1" id="Layer_1" xmlns="http://www.w3.org/2000/svg" xmlns:xlink="http://www.w3.org/1999/xlink" x="0px" y="0px"
	 width="465.896px" height="465.896px" viewBox="0 0 465.896 465.896" enable-background="new 0 0 465.896 465.896"
	 xml:space="preserve">
<g>
	<g>
		<rect x="213.536" y="19.412" width="38.824" height="213.535"/>
		<path d="M291.186,47.739V89.08c56.834,23.1,97.062,78.834,97.062,143.867c0,85.631-69.669,155.299-155.299,155.299
			S77.649,318.578,77.649,232.947c0-65.033,40.228-120.768,97.062-143.867V47.739C95.963,72.479,38.825,146.028,38.825,232.947
			c0,107.213,86.91,194.123,194.123,194.123c107.214,0,194.123-86.91,194.123-194.123
			C427.071,146.028,369.934,72.479,291.186,47.739z"/>
	</g>
	<rect fill="none" width="465.896" height="465.896"/>
</g>
</svg>
