<?xml version="1.0" encoding="utf-8"?>
<!-- Generator: Adobe Illustrator 16.0.0, SVG Export Plug-In . SVG Version: 6.00 Build 0)  -->
<!DOCTYPE svg PUBLIC "-//W3C//DTD SVG 1.1//EN" "http://www.w3.org/Graphics/SVG/1.1/DTD/svg11.dtd">
<svg version="1.1" id="Layer_1" xmlns="http://www.w3.org/2000/svg" xmlns:xlink="http://www.w3.org/1999/xlink" x="0px" y="0px"
	 width="465.896px" height="465.896px" viewBox="0 0 465.896 465.896" enable-background="new 0 0 465.896 465.896"
	 xml:space="preserve">
<g>
	<path d="M355.052,110.968L204.066,261.963l-96.095-96.095l0,0c-7.573-7.574-19.868-7.574-27.45,0.009L80.645,166h-0.228
		l-27.241,27.232v0.199l-0.104-0.104c-7.583,7.583-7.583,19.877,0,27.45l0,0l137.27,137.271c7.583,7.583,19.868,7.583,27.45,0
		l-0.01-0.01l192.171-192.151v-0.019l0.01,0.009c7.583-7.592,7.583-19.877,0-27.45l-27.45-27.459
		C374.919,103.384,362.635,103.384,355.052,110.968z"/>
	<rect fill="none" width="465.896" height="465.896"/>
</g>
</svg>
