<?xml version="1.0" encoding="utf-8"?>
<!-- Generator: Adobe Illustrator 16.0.0, SVG Export Plug-In . SVG Version: 6.00 Build 0)  -->
<!DOCTYPE svg PUBLIC "-//W3C//DTD SVG 1.1//EN" "http://www.w3.org/Graphics/SVG/1.1/DTD/svg11.dtd">
<svg version="1.1" id="Layer_1" xmlns="http://www.w3.org/2000/svg" xmlns:xlink="http://www.w3.org/1999/xlink" x="0px" y="0px"
	 width="465.895px" height="465.896px" viewBox="0 0 465.895 465.896" enable-background="new 0 0 465.895 465.896"
	 xml:space="preserve">
<g>
	<path d="M446.484,419.014L316.617,289.213c20.463-26.312,32.785-59.242,32.785-95.09c0-85.631-69.658-155.299-155.289-155.299
		c-85.629,0-155.289,69.668-155.289,155.299c0,85.63,69.66,155.279,155.289,155.279c35.82,0,68.75-12.304,95.053-32.739
		l129.811,129.819L446.484,419.014z M80.236,194.123c0-62.806,51.092-113.877,113.877-113.877
		c62.805,0,113.877,51.071,113.877,113.877C307.99,256.909,256.918,308,194.113,308C131.328,308,80.236,256.909,80.236,194.123z"/>
	<rect fill="none" width="465.895" height="465.896"/>
	<polygon points="262.758,153.033 235.299,125.573 194.123,166.748 152.947,125.573 125.488,153.033 166.664,194.208 
		125.488,235.384 152.947,262.843 194.123,221.668 235.299,262.843 262.758,235.384 221.582,194.208 	"/>
</g>
</svg>
