<?xml version="1.0" encoding="utf-8"?>
<!-- Generator: Adobe Illustrator 16.0.0, SVG Export Plug-In . SVG Version: 6.00 Build 0)  -->
<!DOCTYPE svg PUBLIC "-//W3C//DTD SVG 1.1//EN" "http://www.w3.org/Graphics/SVG/1.1/DTD/svg11.dtd">
<svg version="1.1" id="Layer_1" xmlns="http://www.w3.org/2000/svg" xmlns:xlink="http://www.w3.org/1999/xlink" x="0px" y="0px"
	 width="465.895px" height="465.896px" viewBox="0 0 465.895 465.896" enable-background="new 0 0 465.895 465.896"
	 xml:space="preserve">
<g>
	<rect fill="none" width="465.895" height="465.896"/>
	<g>
		<path d="M232.947,116.474c-32.15,0-58.236,26.075-58.236,58.237c0,32.151,26.086,58.236,58.236,58.236
			c32.152,0,58.236-26.085,58.236-58.236C291.184,142.549,265.1,116.474,232.947,116.474z"/>
		<path d="M232.947,38.814c-107.213,0-194.123,86.91-194.123,194.123c0,107.214,86.91,194.124,194.123,194.124
			s194.123-86.91,194.123-194.124C427.07,125.725,340.16,38.814,232.947,38.814z M330.01,358.379v-67.194l0,0
			c-0.01-21.445-17.375-38.815-38.826-38.825h-19.41l-38.826,38.825l-38.824-38.825h-19.412c-21.441,0-38.824,17.365-38.824,38.825
			v67.194c-37.498-29.081-61.764-74.427-61.764-125.441c0-87.578,71.242-158.829,158.824-158.829
			c87.584,0,158.826,71.251,158.826,158.829C391.773,283.952,367.508,329.298,330.01,358.379z"/>
	</g>
</g>
</svg>
