<?xml version="1.0" encoding="utf-8"?>
<!-- Generator: Adobe Illustrator 16.0.0, SVG Export Plug-In . SVG Version: 6.00 Build 0)  -->
<!DOCTYPE svg PUBLIC "-//W3C//DTD SVG 1.1//EN" "http://www.w3.org/Graphics/SVG/1.1/DTD/svg11.dtd">
<svg version="1.1" id="Layer_1" xmlns="http://www.w3.org/2000/svg" xmlns:xlink="http://www.w3.org/1999/xlink" x="0px" y="0px"
	 width="465.896px" height="465.896px" viewBox="0 0 465.896 465.896" enable-background="new 0 0 465.896 465.896"
	 xml:space="preserve">
<g>
	<path d="M427.071,77.648H38.825c-10.721,0-19.413,8.692-19.413,19.413v252.359c0,10.721,8.692,19.413,19.413,19.413h155.336
		l38.824,38.824l38.825-38.824h155.261c10.721,0,19.412-8.692,19.412-19.413V97.062C446.483,86.341,437.792,77.648,427.071,77.648z
		 M58.237,213.535h97.062v38.824H58.237V213.535z M232.948,330.009H58.237v-38.824h174.711V330.009z M194.123,252.359v-38.824
		h97.062v38.824H194.123z M407.659,330.009H271.772v-38.824h135.887V330.009z M407.659,252.359H330.01v-38.824h77.649V252.359z"/>
	<rect fill="none" width="465.896" height="465.896"/>
</g>
</svg>
