<?xml version="1.0" encoding="utf-8"?>
<!-- Generator: Adobe Illustrator 16.0.0, SVG Export Plug-In . SVG Version: 6.00 Build 0)  -->
<!DOCTYPE svg PUBLIC "-//W3C//DTD SVG 1.1//EN" "http://www.w3.org/Graphics/SVG/1.1/DTD/svg11.dtd">
<svg version="1.1" id="Layer_1" xmlns="http://www.w3.org/2000/svg" xmlns:xlink="http://www.w3.org/1999/xlink" x="0px" y="0px"
	 width="465.896px" height="465.896px" viewBox="0 0 465.896 465.896" enable-background="new 0 0 465.896 465.896"
	 xml:space="preserve">
<g>
	<rect fill="none" width="465.896" height="465.896"/>
	<g>
		<path d="M232.949,38.82c-107.203,0-194.125,86.919-194.125,194.128c0,107.203,86.922,194.123,194.125,194.123
			s194.121-86.92,194.121-194.123C427.07,125.739,340.152,38.82,232.949,38.82z M342.691,315.157l-27.449,27.459
			c-7.582,7.574-19.867,7.574-27.449,0L232.74,287.56l-54.9,54.91l0.141,0.146c-7.535,7.521-19.676,7.555-27.277,0.143h-0.607
			l-27.459-27.46v-0.678c-6.922-7.431-6.922-18.938,0-26.38v-0.393l55.193-55.194l-54.76-54.759c-7.572-7.582-7.572-19.867,0-27.449
			l27.461-27.451c7.574-7.582,19.867-7.588,27.449-0.01l54.76,54.759l54.615-54.616h0.578l-0.141-0.143
			c7.582-7.578,19.867-7.572,27.449,0.01l-0.285,0.289l27.301,27.304v0.294l0.434-0.436c7.584,7.582,7.584,19.876,0,27.44
			l-0.434-0.437v0.578l-54.617,54.621l55.062,55.057C350.275,295.29,350.275,307.583,342.691,315.157z"/>
	</g>
</g>
</svg>
