<?xml version="1.0" encoding="utf-8"?>
<!-- Generator: Adobe Illustrator 16.0.0, SVG Export Plug-In . SVG Version: 6.00 Build 0)  -->
<!DOCTYPE svg PUBLIC "-//W3C//DTD SVG 1.1//EN" "http://www.w3.org/Graphics/SVG/1.1/DTD/svg11.dtd">
<svg version="1.1" id="Layer_1" xmlns="http://www.w3.org/2000/svg" xmlns:xlink="http://www.w3.org/1999/xlink" x="0px" y="0px"
	 width="465.896px" height="465.896px" viewBox="0 0 465.896 465.896" enable-background="new 0 0 465.896 465.896"
	 xml:space="preserve">
<g>
	<path d="M232.948,97.062c-135.887,0-213.536,135.886-213.536,135.886s77.649,135.887,213.536,135.887
		c135.886,0,213.535-135.887,213.535-135.887S368.834,97.062,232.948,97.062z M103.28,273.962
		c-16.029-14.739-28.503-29.688-36.996-41.015c8.502-11.336,20.967-26.274,36.996-41.014
		c37.469-34.437,77.668-52.938,119.602-55.526c-48.873,5.042-86.996,46.341-86.996,96.54s38.123,91.498,86.996,96.54
		C180.948,326.9,140.749,308.397,103.28,273.962z M174.711,232.947c0-32.161,26.075-58.236,58.237-58.236
		c32.16,0,58.236,26.075,58.236,58.236s-26.076,58.237-58.236,58.237C200.786,291.185,174.711,265.108,174.711,232.947z
		 M362.616,273.962c-37.469,34.436-77.668,52.938-119.602,55.525c48.871-5.042,86.994-46.341,86.994-96.54
		s-38.123-91.498-86.994-96.54c41.934,2.588,82.133,21.09,119.602,55.526c16.028,14.739,28.502,29.687,36.995,41.014
		C391.108,244.284,378.645,259.223,362.616,273.962z"/>
	<rect fill="none" width="465.896" height="465.896"/>
</g>
</svg>
