<?xml version="1.0" encoding="utf-8"?>
<!-- Generator: Adobe Illustrator 16.0.0, SVG Export Plug-In . SVG Version: 6.00 Build 0)  -->
<!DOCTYPE svg PUBLIC "-//W3C//DTD SVG 1.1//EN" "http://www.w3.org/Graphics/SVG/1.1/DTD/svg11.dtd">
<svg version="1.1" id="Layer_1" xmlns="http://www.w3.org/2000/svg" xmlns:xlink="http://www.w3.org/1999/xlink" x="0px" y="0px"
	 width="465.896px" height="465.896px" viewBox="0 0 465.896 465.896" enable-background="new 0 0 465.896 465.896"
	 xml:space="preserve">
<g>
	<path d="M232.948,97.062c-135.887,0-213.536,135.887-213.536,135.887s77.649,135.887,213.536,135.887
		c135.886,0,213.535-135.887,213.535-135.887S368.834,97.062,232.948,97.062z M66.284,232.948
		c8.502-11.336,20.967-26.275,36.996-41.014c37.469-34.432,77.668-52.943,119.602-55.526c-48.873,5.038-86.996,46.336-86.996,96.54
		s38.123,91.502,86.996,96.54c-41.934-2.583-82.133-21.095-119.602-55.525C87.251,259.224,74.777,244.275,66.284,232.948z
		 M362.616,273.963c-37.469,34.431-77.668,52.942-119.602,55.525c48.871-5.038,86.994-46.336,86.994-96.54
		s-38.123-91.502-86.994-96.54c41.934,2.583,82.133,21.095,119.602,55.526c16.028,14.738,28.502,29.687,36.995,41.014
		C391.108,244.285,378.645,259.224,362.616,273.963z"/>
	<rect fill="none" width="465.896" height="465.896"/>
</g>
</svg>
