<?xml version="1.0" encoding="utf-8"?>
<!-- Generator: Adobe Illustrator 16.0.0, SVG Export Plug-In . SVG Version: 6.00 Build 0)  -->
<!DOCTYPE svg PUBLIC "-//W3C//DTD SVG 1.1//EN" "http://www.w3.org/Graphics/SVG/1.1/DTD/svg11.dtd">
<svg version="1.1" id="Layer_1" xmlns="http://www.w3.org/2000/svg" xmlns:xlink="http://www.w3.org/1999/xlink" x="0px" y="0px"
	 width="465.896px" height="465.896px" viewBox="0 0 465.896 465.896" enable-background="new 0 0 465.896 465.896"
	 xml:space="preserve">
<g>
	<path d="M232.948,38.824c-107.043,0-194.123,87.085-194.123,194.123c0,107.043,87.08,194.123,194.123,194.123
		s194.123-87.08,194.123-194.123C427.071,125.909,339.991,38.824,232.948,38.824z M386.901,213.535h-76.664
		c-1.668-46.465-9.346-92.844-23.631-126.133C339.991,107.151,379.593,155.317,386.901,213.535z M232.948,388.246
		c-9.327,0-35.109-46.645-38.455-135.887h76.91C268.058,341.602,242.274,388.246,232.948,388.246z M194.493,213.535
		c3.346-89.246,29.128-135.887,38.455-135.887c9.326,0,35.109,46.641,38.455,135.887H194.493z M179.289,87.402
		c-14.284,33.289-21.962,79.668-23.63,126.133H78.995C86.304,155.317,125.905,107.151,179.289,87.402z M78.995,252.359h76.664
		c1.668,46.465,9.346,92.844,23.63,126.133C125.905,358.739,86.304,310.578,78.995,252.359z M286.606,378.492
		c14.285-33.289,21.963-79.668,23.631-126.133h76.664C379.593,310.578,339.991,358.739,286.606,378.492z"/>
	<rect fill="none" width="465.896" height="465.896"/>
</g>
</svg>
