<?xml version="1.0" encoding="utf-8"?>
<!-- Generator: Adobe Illustrator 16.0.0, SVG Export Plug-In . SVG Version: 6.00 Build 0)  -->
<!DOCTYPE svg PUBLIC "-//W3C//DTD SVG 1.1//EN" "http://www.w3.org/Graphics/SVG/1.1/DTD/svg11.dtd">
<svg version="1.1" id="Layer_1" xmlns="http://www.w3.org/2000/svg" xmlns:xlink="http://www.w3.org/1999/xlink" x="0px" y="0px"
	 width="465.896px" height="465.896px" viewBox="0 0 465.896 465.896" enable-background="new 0 0 465.896 465.896"
	 xml:space="preserve">
<g>
	<path d="M377.611,216.048l-0.047,0.08l0.029-0.08L125.991,74.513l-0.058,0.062l0.039-0.062c-2.807-1.583-6.048-2.493-9.498-2.493
		c-10.721,0-19.412,8.691-19.412,19.412v283.033c0,10.721,8.691,19.412,19.412,19.412c3.45,0,6.691-0.91,9.498-2.492l-0.02-0.033
		l0.038,0.037l251.603-141.53c5.895-3.327,9.876-9.649,9.876-16.91C387.47,225.706,383.498,219.384,377.611,216.048z"/>
	<rect fill="none" width="465.896" height="465.896"/>
</g>
</svg>
