<?xml version="1.0" encoding="utf-8"?>
<!-- Generator: Adobe Illustrator 16.0.0, SVG Export Plug-In . SVG Version: 6.00 Build 0)  -->
<!DOCTYPE svg PUBLIC "-//W3C//DTD SVG 1.1//EN" "http://www.w3.org/Graphics/SVG/1.1/DTD/svg11.dtd">
<svg version="1.1" id="Layer_1" xmlns="http://www.w3.org/2000/svg" xmlns:xlink="http://www.w3.org/1999/xlink" x="0px" y="0px"
	 width="465.896px" height="465.896px" viewBox="0 0 465.896 465.896" enable-background="new 0 0 465.896 465.896"
	 xml:space="preserve">
<g>
	<rect fill="none" width="465.896" height="465.896"/>
	<g>
		<polygon points="370.209,342.759 342.758,370.209 315.309,370.209 95.68,150.588 95.68,123.143 123.137,95.683 150.588,95.683 
			370.219,315.309 		"/>
		<polygon points="342.758,95.683 370.209,123.143 370.209,150.588 150.588,370.209 123.137,370.209 95.68,342.759 95.68,315.309 
			315.309,95.683 		"/>
		<path d="M95.68,123.143c-7.574,7.578-7.574,19.862,0,27.445l13.723-13.725L95.68,123.143z"/>
		<path d="M150.588,95.683c-7.584-7.578-19.877-7.578-27.451,0l13.727,13.734L150.588,95.683z"/>
		<path d="M370.209,342.759c7.584-7.583,7.584-19.867,0-27.45l-13.725,13.726L370.209,342.759z"/>
		<path d="M315.309,370.209c7.574,7.583,19.867,7.583,27.449,0l-13.723-13.726L315.309,370.209z"/>
		<path d="M342.758,95.683c-7.582-7.578-19.875-7.578-27.449,0l13.727,13.734L342.758,95.683z"/>
		<path d="M370.209,150.588c7.584-7.583,7.584-19.877,0-27.445l-13.725,13.721L370.209,150.588z"/>
		<path d="M123.137,370.209c7.574,7.583,19.867,7.583,27.451,0l-13.725-13.726L123.137,370.209z"/>
		<path d="M95.68,315.309c-7.574,7.583-7.574,19.867,0,27.45l13.723-13.725L95.68,315.309z"/>
	</g>
</g>
</svg>
