<?xml version="1.0" encoding="utf-8"?>
<!-- Generator: Adobe Illustrator 16.0.0, SVG Export Plug-In . SVG Version: 6.00 Build 0)  -->
<!DOCTYPE svg PUBLIC "-//W3C//DTD SVG 1.1//EN" "http://www.w3.org/Graphics/SVG/1.1/DTD/svg11.dtd">
<svg version="1.1" id="Layer_1" xmlns="http://www.w3.org/2000/svg" xmlns:xlink="http://www.w3.org/1999/xlink" x="0px" y="0px"
	 width="465.896px" height="465.896px" viewBox="0 0 465.896 465.896" enable-background="new 0 0 465.896 465.896"
	 xml:space="preserve">
<g>
	<g>
		<g>
			<path d="M315.308,315.308c45.479-45.488,45.479-119.232,0-164.721l-27.45,27.45c30.322,30.322,30.322,79.498,0,109.82
				L315.308,315.308z"/>
			<path d="M370.218,370.218c75.811-75.82,75.811-198.721,0-274.54l-27.46,27.459c60.654,60.645,60.654,158.977,0,219.621
				L370.218,370.218z"/>
		</g>
		<path d="M58.237,291.185c-10.721,0-19.413-8.692-19.413-19.412v-77.649c0-10.721,8.692-19.412,19.413-19.412h77.648l97.062-97.062
			v310.598l-97.062-97.062H58.237z"/>
	</g>
	<rect fill="none" width="465.896" height="465.896"/>
</g>
</svg>
