<?xml version="1.0" encoding="utf-8"?>
<!-- Generator: Adobe Illustrator 16.0.0, SVG Export Plug-In . SVG Version: 6.00 Build 0)  -->
<!DOCTYPE svg PUBLIC "-//W3C//DTD SVG 1.1//EN" "http://www.w3.org/Graphics/SVG/1.1/DTD/svg11.dtd">
<svg version="1.1" id="Layer_1" xmlns="http://www.w3.org/2000/svg" xmlns:xlink="http://www.w3.org/1999/xlink" x="0px" y="0px"
	 width="465.896px" height="465.896px" viewBox="0 0 465.896 465.896" enable-background="new 0 0 465.896 465.896"
	 xml:space="preserve">
<g>
	<path d="M284.085,206.436c4.521-12.995,7.1-26.9,7.1-41.432c0-69.668-56.493-126.18-126.181-126.18
		c-69.687,0-126.18,56.512-126.18,126.18c0,69.688,56.493,126.181,126.18,126.181c14.531,0,28.437-2.578,41.422-7.1l26.531,26.53
		h39.118v39.109h38.521v38.521h38.825v38.824h58.228l0.009-0.009v0.009c10.721,0,19.412-8.691,19.412-19.412v-58.237
		L284.085,206.436z M135.896,174.711c-21.44,0-38.834-17.365-38.834-38.825c0-21.44,17.394-38.824,38.834-38.824
		c21.422,0,38.815,17.384,38.815,38.824C174.711,157.346,157.317,174.711,135.896,174.711z"/>
	<rect fill="none" width="465.896" height="465.896"/>
</g>
</svg>
