<?xml version="1.0" encoding="utf-8"?>
<!-- Generator: Adobe Illustrator 16.0.0, SVG Export Plug-In . SVG Version: 6.00 Build 0)  -->
<!DOCTYPE svg PUBLIC "-//W3C//DTD SVG 1.1//EN" "http://www.w3.org/Graphics/SVG/1.1/DTD/svg11.dtd">
<svg version="1.1" id="Layer_1" xmlns="http://www.w3.org/2000/svg" xmlns:xlink="http://www.w3.org/1999/xlink" x="0px" y="0px"
	 width="465.896px" height="465.896px" viewBox="0 0 465.896 465.896" enable-background="new 0 0 465.896 465.896"
	 xml:space="preserve">
<g>
	<path d="M446.483,419.014L316.616,289.213c20.465-26.312,32.787-59.242,32.787-95.09c0-85.631-69.659-155.299-155.289-155.299
		c-85.631,0-155.289,69.668-155.289,155.299c0,85.63,69.658,155.279,155.289,155.279c35.82,0,68.749-12.304,95.052-32.739
		l129.811,129.819L446.483,419.014z M80.237,194.123c0-62.806,51.09-113.877,113.877-113.877
		c62.806,0,113.877,51.071,113.877,113.877C307.991,256.909,256.92,308,194.114,308C131.327,308,80.237,256.909,80.237,194.123z"/>
	<rect fill="none" width="465.896" height="465.896"/>
</g>
</svg>
