<?xml version="1.0" encoding="utf-8"?>
<!-- Generator: Adobe Illustrator 16.0.0, SVG Export Plug-In . SVG Version: 6.00 Build 0)  -->
<!DOCTYPE svg PUBLIC "-//W3C//DTD SVG 1.1//EN" "http://www.w3.org/Graphics/SVG/1.1/DTD/svg11.dtd">
<svg version="1.1" id="Layer_1" xmlns="http://www.w3.org/2000/svg" xmlns:xlink="http://www.w3.org/1999/xlink" x="0px" y="0px"
	 width="465.896px" height="465.896px" viewBox="0 0 465.896 465.896" enable-background="new 0 0 465.896 465.896"
	 xml:space="preserve">
<g>
	<g>
		<path d="M388.246,135.887c0,10.721-8.691,19.412-19.412,19.412H97.062c-10.721,0-19.413-8.691-19.413-19.412V97.062
			c0-10.72,8.692-19.412,19.413-19.412h271.772c10.721,0,19.412,8.692,19.412,19.412V135.887z"/>
		<path d="M388.246,252.36c0,10.721-8.691,19.412-19.412,19.412H97.062c-10.721,0-19.413-8.691-19.413-19.412v-38.824
			c0-10.721,8.692-19.412,19.413-19.412h271.772c10.721,0,19.412,8.691,19.412,19.412V252.36z"/>
		<path d="M388.246,368.835c0,10.72-8.691,19.412-19.412,19.412H97.062c-10.721,0-19.413-8.692-19.413-19.412V330.01
			c0-10.72,8.692-19.412,19.413-19.412h271.772c10.721,0,19.412,8.692,19.412,19.412V368.835z"/>
	</g>
	<rect fill="none" width="465.896" height="465.896"/>
</g>
</svg>
