<?xml version="1.0" encoding="utf-8"?>
<!-- Generator: Adobe Illustrator 16.0.0, SVG Export Plug-In . SVG Version: 6.00 Build 0)  -->
<!DOCTYPE svg PUBLIC "-//W3C//DTD SVG 1.1//EN" "http://www.w3.org/Graphics/SVG/1.1/DTD/svg11.dtd">
<svg version="1.1" id="Layer_1" xmlns="http://www.w3.org/2000/svg" xmlns:xlink="http://www.w3.org/1999/xlink" x="0px" y="0px"
	 width="465.896px" height="465.896px" viewBox="0 0 465.896 465.896" enable-background="new 0 0 465.896 465.896"
	 xml:space="preserve">
<g>
	<g>
		<polygon points="427.071,388.247 388.246,388.247 388.246,116.475 38.824,116.475 38.824,77.649 427.071,77.649 		"/>
		<polygon points="38.824,155.299 38.824,194.124 310.598,194.124 310.598,388.247 349.422,388.247 349.422,155.299 		"/>
		<path d="M271.772,368.835c0,10.72-8.691,19.412-19.412,19.412H58.237c-10.721,0-19.413-8.692-19.413-19.412V252.36
			c0-10.72,8.692-19.412,19.413-19.412H252.36c10.721,0,19.412,8.692,19.412,19.412V368.835z"/>
	</g>
	<rect fill="none" width="465.896" height="465.896"/>
</g>
</svg>
