<?xml version="1.0" encoding="utf-8"?>
<!-- Generator: Adobe Illustrator 16.0.0, SVG Export Plug-In . SVG Version: 6.00 Build 0)  -->
<!DOCTYPE svg PUBLIC "-//W3C//DTD SVG 1.1//EN" "http://www.w3.org/Graphics/SVG/1.1/DTD/svg11.dtd">
<svg version="1.1" id="Layer_1" xmlns="http://www.w3.org/2000/svg" xmlns:xlink="http://www.w3.org/1999/xlink" x="0px" y="0px"
	 width="465.895px" height="465.896px" viewBox="0 0 465.895 465.896" enable-background="new 0 0 465.895 465.896"
	 xml:space="preserve">
<g>
	<rect fill="none" width="465.895" height="465.896"/>
	<g>
		<path d="M232.947,38.824c-107.213,0-194.123,86.9-194.123,194.123c0,107.213,86.91,194.123,194.123,194.123
			S427.07,340.16,427.07,232.947C427.07,125.725,340.16,38.824,232.947,38.824z M232.947,388.236
			c-85.764,0-155.289-69.525-155.289-155.289c0-85.772,69.525-155.299,155.289-155.299c85.772,0,155.299,69.526,155.299,155.299
			C388.246,318.711,318.72,388.236,232.947,388.236z"/>
		<rect x="213.535" y="116.412" width="38.824" height="233.113"/>
		<path d="M249.004,215.687l-19.09-4.189c-16.739-3.138-33.99-6.274-33.99-21.962c0-14.133,16.218-22.493,34.777-22.493
			c25.563,0,37.99,13.678,44.947,23.289l24.824-24.824c-13.439-15.271-33.971-29.593-67.942-29.593
			c-43.413,0-72.958,22.503-72.958,57.545c0,30.588,22.75,41.83,31.109,45.242c5.754,2.351,11.517,3.658,23.279,6.53l22.229,4.711
			c16.738,3.915,17.27,4.181,21.44,5.754c5.763,2.341,13.876,6.53,13.876,18.304c0,6.284-2.35,15.687-15.696,21.185
			c-6.54,2.616-13.337,3.138-19.867,3.138c-26.663,0-41.563-9.905-49.744-18.352l-25.09,25.081
			c12.56,12.246,27.128,17.981,36.379,20.729c11.261,3.138,22.749,4.181,32.967,4.181c39.214,0,78.446-16.986,78.446-59.365
			C308.9,231.108,273.857,220.919,249.004,215.687z"/>
	</g>
</g>
</svg>
