<?xml version="1.0" encoding="utf-8"?>
<!-- Generator: Adobe Illustrator 16.0.0, SVG Export Plug-In . SVG Version: 6.00 Build 0)  -->
<!DOCTYPE svg PUBLIC "-//W3C//DTD SVG 1.1//EN" "http://www.w3.org/Graphics/SVG/1.1/DTD/svg11.dtd">
<svg version="1.1" id="Layer_1" xmlns="http://www.w3.org/2000/svg" xmlns:xlink="http://www.w3.org/1999/xlink" x="0px" y="0px"
	 width="465.895px" height="465.896px" viewBox="0 0 465.895 465.896" enable-background="new 0 0 465.895 465.896"
	 xml:space="preserve">
<g>
	<g>
		<g>
			<path d="M264.502,258.086c-3.437-1.299-4.891-1.862-12.143-3.654v52.555c3.36-0.56,6.711-1.36,10.01-2.673
				c15.602-6.445,18.359-17.45,18.359-24.806C280.729,265.744,271.223,260.815,264.502,258.086z"/>
		</g>
		<g>
			<path d="M192.256,180.626c0,12.389,9.265,18.057,21.279,21.583v-44.891C201.108,161.37,192.256,169.389,192.256,180.626z"/>
		</g>
		<g>
			<path d="M232.947,38.825c-107.213,0-194.123,86.91-194.123,194.123c0,107.223,86.91,194.123,194.123,194.123
				s194.123-86.9,194.123-194.123C427.07,125.735,340.16,38.825,232.947,38.825z M252.359,343.702v25.312h-38.824V343.91
				c-6.412-0.768-12.967-1.972-19.441-3.786c-11.365-3.385-29.535-10.702-44.673-26.541l29.317-29.402
				c6.379,7.279,17.195,16.071,34.797,20.658v-58.971l-0.143-0.029c-13.801-3.384-20.512-4.9-27.261-7.658
				c-9.81-3.99-36.417-17.147-36.417-52.977c0-34.914,25.076-59.09,63.82-65.555V97.242h38.824v21.896
				c28.186,3.877,47.038,16.905,60.246,31.185l-28.814,28.872c-6.213-8.095-15.74-17.715-31.432-22.256v53.854l2.057,0.45
				c29.071,6.123,70.096,18.057,70.096,64.266C324.512,317.986,290.853,338.621,252.359,343.702z"/>
		</g>
	</g>
	<rect fill="none" width="465.895" height="465.896"/>
</g>
</svg>
